<?xml version="1.0" standalone="no"?>
<!DOCTYPE svg PUBLIC "-//W3C//DTD SVG 20010904//EN"
 "http://www.w3.org/TR/2001/REC-SVG-20010904/DTD/svg10.dtd">
<svg version="1.0" xmlns="http://www.w3.org/2000/svg"
 width="175.000000pt" height="175.000000pt" viewBox="0 0 175.000000 175.000000"
 preserveAspectRatio="xMidYMid meet">
<metadata>
Created by potrace 1.11, written by Peter Selinger 2001-2013
</metadata>
<g transform="translate(0.000000,175.000000) scale(0.100000,-0.100000)"
fill="#000000" stroke="none">
<path d="M544 1667 c-111 -42 -250 -133 -323 -211 l-24 -25 29 -6 c270 -60
523 -181 719 -344 27 -22 53 -41 58 -41 4 0 -17 30 -46 68 -118 146 -217 323
-276 492 -35 99 -41 102 -137 67z"/>
<path d="M1406 1447 c-3 -12 -5 -24 -5 -26 0 -2 -3 -7 -8 -10 -5 -3 -22 -31
-37 -61 -16 -30 -34 -62 -42 -71 -8 -9 -11 -19 -7 -22 3 -4 2 -7 -3 -7 -5 0
-18 -14 -28 -32 -21 -35 -20 -34 -102 -133 -51 -62 -39 -61 23 3 12 12 25 22
28 22 7 0 87 61 96 73 3 5 10 9 15 9 5 1 25 11 44 23 27 16 117 66 168 92 5 2
-38 62 -70 98 -16 16 -28 33 -28 37 0 4 -9 12 -19 17 -15 9 -20 7 -25 -12z"/>
<path d="M980 894 c-96 -94 -315 -227 -485 -293 -106 -42 -265 -85 -353 -97
-29 -4 -54 -10 -57 -14 -7 -11 91 -149 148 -208 83 -85 240 -181 348 -212 25
-8 26 -7 48 94 56 250 206 544 364 717 20 22 37 42 37 44 0 12 -18 1 -50 -31z"/>
<path d="M1170 873 c12 -18 26 -33 31 -33 6 0 8 -4 5 -8 -3 -5 4 -15 15 -22
10 -8 19 -18 19 -22 0 -10 62 -101 75 -110 7 -5 7 -8 0 -8 -6 0 -6 -3 1 -8 6
-4 21 -27 35 -52 13 -25 28 -48 32 -51 5 -3 8 -9 8 -13 0 -3 11 -32 26 -63 14
-32 28 -67 30 -78 2 -10 8 -22 14 -26 6 -3 10 -9 10 -13 -4 -25 3 -24 28 5 16
18 27 37 25 41 -3 4 -1 8 4 8 9 0 29 36 30 54 0 5 4 12 9 15 11 7 53 96 53
111 0 5 -3 9 -7 8 -5 -1 -23 6 -40 15 -18 10 -33 14 -33 10 0 -5 -4 -3 -8 2
-4 6 -25 19 -47 30 -22 10 -52 27 -66 37 -14 9 -29 15 -33 11 -3 -3 -6 -2 -6
4 0 12 -70 58 -82 55 -5 -1 -8 2 -8 6 0 4 -24 26 -52 47 -29 22 -61 49 -71 60
-13 14 -12 10 3 -12z"/>
</g>
</svg>
